<svg xmlns="http://www.w3.org/2000/svg" viewBox="0 0 64 64" width="64" height="64">
  <rect width="64" height="64" rx="14" fill="#FFF6E3"/>
  <!-- mart awning -->
  <rect x="8" y="10" width="48" height="9" fill="#D2232A"/>
  <rect x="17.6" y="10" width="9.6" height="9" fill="#F2B01E"/>
  <rect x="36.8" y="10" width="9.6" height="9" fill="#F2B01E"/>
  <circle cx="12.8" cy="19" r="4.8" fill="#D2232A"/>
  <circle cx="22.4" cy="19" r="4.8" fill="#F2B01E"/>
  <circle cx="32" cy="19" r="4.8" fill="#D2232A"/>
  <circle cx="41.6" cy="19" r="4.8" fill="#F2B01E"/>
  <circle cx="51.2" cy="19" r="4.8" fill="#D2232A"/>
  <!-- lottery ticket under the awning -->
  <g transform="rotate(-8 32 42)">
    <rect x="11" y="32" width="42" height="21" rx="4" fill="#D2232A"/>
    <circle cx="11" cy="42.5" r="3.8" fill="#FFF6E3"/>
    <circle cx="53" cy="42.5" r="3.8" fill="#FFF6E3"/>
    <line x1="41" y1="34.5" x2="41" y2="50.5" stroke="#F2B01E" stroke-width="2.2" stroke-dasharray="2.8 2.8"/>
    <path d="M24.5 36.2l1.5 4 4 1.3-4 1.3-1.5 4-1.5-4-4-1.3 4-1.3Z" fill="#F2B01E"/>
    <circle cx="47" cy="38.5" r="1.5" fill="#FFF6E3"/>
    <circle cx="47" cy="42.5" r="1.5" fill="#FFF6E3"/>
    <circle cx="47" cy="46.5" r="1.5" fill="#FFF6E3"/>
  </g>
</svg>
